REM DIRINDEX 1\2,1\3,1\4,1\6,1\5\7,1\5\8
REM DIRNAME folder01,folder02,folder03,folder04,folder05,folder06,folder07,folder08
TITLE ""
FILE "DB4500_5th_6C_34.mp3" MP3
  TRACK 01 AUDIO
    TITLE "0:"
    INDEX 01 00:00:00
  TRACK 02 AUDIO
    TITLE "2:cjc114_4445"
    INDEX 01 00:00:01
  TRACK 03 AUDIO
    TITLE "0:"
    INDEX 01 00:02:43
  TRACK 04 AUDIO
    TITLE "3:cjc114_4446"
    INDEX 01 00:02:57
  TRACK 05 AUDIO
    TITLE "0:"
    INDEX 01 00:04:23
  TRACK 06 AUDIO
    TITLE "4:cjc114_4447"
    INDEX 01 00:04:36
  TRACK 07 AUDIO
    TITLE "0:"
    INDEX 01 00:08:19
  TRACK 08 AUDIO
    TITLE "2:cjc114_4448"
    INDEX 01 00:08:58
  TRACK 09 AUDIO
    TITLE "0:"
    INDEX 01 00:09:67
  TRACK 10 AUDIO
    TITLE "3:cjc114_4449"
    INDEX 01 00:10:06
  TRACK 11 AUDIO
    TITLE "0:"
    INDEX 01 00:11:27
  TRACK 12 AUDIO
    TITLE "4:cjc114_4450"
    INDEX 01 00:11:46
  TRACK 13 AUDIO
    TITLE "0:"
    INDEX 01 00:15:15
  TRACK 14 AUDIO
    TITLE "2:cjc114_4451"
    INDEX 01 00:15:52
  TRACK 15 AUDIO
    TITLE "0:"
    INDEX 01 00:16:71
  TRACK 16 AUDIO
    TITLE "3:cjc114_4452"
    INDEX 01 00:17:12
  TRACK 17 AUDIO
    TITLE "0:"
    INDEX 01 00:18:25
  TRACK 18 AUDIO
    TITLE "4:cjc114_4453"
    INDEX 01 00:18:41
  TRACK 19 AUDIO
    TITLE "0:"
    INDEX 01 00:21:35
  TRACK 20 AUDIO
    TITLE "2:cjc114_4454"
    INDEX 01 00:21:74
  TRACK 21 AUDIO
    TITLE "0:"
    INDEX 01 00:22:72
  TRACK 22 AUDIO
    TITLE "3:cjc114_4455"
    INDEX 01 00:23:08
  TRACK 23 AUDIO
    TITLE "0:"
    INDEX 01 00:24:24
  TRACK 24 AUDIO
    TITLE "4:cjc114_4456"
    INDEX 01 00:24:39
  TRACK 25 AUDIO
    TITLE "0:"
    INDEX 01 00:28:66
  TRACK 26 AUDIO
    TITLE "2:cjc114_4457"
    INDEX 01 00:29:33
  TRACK 27 AUDIO
    TITLE "0:"
    INDEX 01 00:30:34
  TRACK 28 AUDIO
    TITLE "3:cjc114_4458"
    INDEX 01 00:30:50
  TRACK 29 AUDIO
    TITLE "0:"
    INDEX 01 00:31:69
  TRACK 30 AUDIO
    TITLE "4:cjc114_4459"
    INDEX 01 00:32:07
  TRACK 31 AUDIO
    TITLE "0:"
    INDEX 01 00:34:24
  TRACK 32 AUDIO
    TITLE "2:cjc114_4460"
    INDEX 01 00:34:61
  TRACK 33 AUDIO
    TITLE "0:"
    INDEX 01 00:36:09
  TRACK 34 AUDIO
    TITLE "3:cjc114_4461"
    INDEX 01 00:36:23
  TRACK 35 AUDIO
    TITLE "0:"
    INDEX 01 00:37:44
  TRACK 36 AUDIO
    TITLE "4:cjc114_4462"
    INDEX 01 00:37:57
  TRACK 37 AUDIO
    TITLE "0:"
    INDEX 01 00:41:20
  TRACK 38 AUDIO
    TITLE "2:cjc114_4463"
    INDEX 01 00:41:55
  TRACK 39 AUDIO
    TITLE "0:"
    INDEX 01 00:42:61
  TRACK 40 AUDIO
    TITLE "3:cjc114_4464"
    INDEX 01 00:42:74
  TRACK 41 AUDIO
    TITLE "0:"
    INDEX 01 00:44:05
  TRACK 42 AUDIO
    TITLE "4:cjc114_4465"
    INDEX 01 00:44:16
  TRACK 43 AUDIO
    TITLE "0:"
    INDEX 01 00:47:54
  TRACK 44 AUDIO
    TITLE "2:cjc114_4466"
    INDEX 01 00:48:18
  TRACK 45 AUDIO
    TITLE "0:"
    INDEX 01 00:49:41
  TRACK 46 AUDIO
    TITLE "3:cjc114_4467"
    INDEX 01 00:49:55
  TRACK 47 AUDIO
    TITLE "0:"
    INDEX 01 00:50:70
  TRACK 48 AUDIO
    TITLE "4:cjc114_4468"
    INDEX 01 00:51:07
  TRACK 49 AUDIO
    TITLE "0:"
    INDEX 01 00:53:31
  TRACK 50 AUDIO
    TITLE "2:cjc114_4469"
    INDEX 01 00:53:66
  TRACK 51 AUDIO
    TITLE "0:"
    INDEX 01 00:55:03
  TRACK 52 AUDIO
    TITLE "3:cjc114_4470"
    INDEX 01 00:55:14
  TRACK 53 AUDIO
    TITLE "0:"
    INDEX 01 00:56:22
  TRACK 54 AUDIO
    TITLE "4:cjc114_4471"
    INDEX 01 00:56:35
  TRACK 55 AUDIO
    TITLE "0:"
    INDEX 01 01:00:13
  TRACK 56 AUDIO
    TITLE "2:cjc114_4472"
    INDEX 01 01:00:53
  TRACK 57 AUDIO
    TITLE "0:"
    INDEX 01 01:01:58
  TRACK 58 AUDIO
    TITLE "3:cjc114_4473"
    INDEX 01 01:01:72
  TRACK 59 AUDIO
    TITLE "0:"
    INDEX 01 01:03:18
  TRACK 60 AUDIO
    TITLE "4:cjc114_4474"
    INDEX 01 01:03:33
  TRACK 61 AUDIO
    TITLE "0:"
    INDEX 01 01:06:42
  TRACK 62 AUDIO
    TITLE "2:cjc114_4475"
    INDEX 01 01:07:06
  TRACK 63 AUDIO
    TITLE "0:"
    INDEX 01 01:08:15
  TRACK 64 AUDIO
    TITLE "3:cjc114_4476"
    INDEX 01 01:08:31
  TRACK 65 AUDIO
    TITLE "0:"
    INDEX 01 01:09:34
  TRACK 66 AUDIO
    TITLE "4:cjc114_4477"
    INDEX 01 01:09:50
  TRACK 67 AUDIO
    TITLE "0:"
    INDEX 01 01:14:12
  TRACK 68 AUDIO
    TITLE "2:cjc114_4478"
    INDEX 01 01:14:49
  TRACK 69 AUDIO
    TITLE "0:"
    INDEX 01 01:15:62
  TRACK 70 AUDIO
    TITLE "3:cjc114_4479"
    INDEX 01 01:16:01
  TRACK 71 AUDIO
    TITLE "0:"
    INDEX 01 01:17:20
  TRACK 72 AUDIO
    TITLE "4:cjc114_4480"
    INDEX 01 01:17:33
  TRACK 73 AUDIO
    TITLE "0:"
    INDEX 01 01:21:59
  TRACK 74 AUDIO
    TITLE "2:cjc114_4481"
    INDEX 01 01:22:19
  TRACK 75 AUDIO
    TITLE "0:"
    INDEX 01 01:23:28
  TRACK 76 AUDIO
    TITLE "3:cjc114_4482"
    INDEX 01 01:23:42
  TRACK 77 AUDIO
    TITLE "0:"
    INDEX 01 01:24:59
  TRACK 78 AUDIO
    TITLE "4:cjc114_4483"
    INDEX 01 01:25:00
  TRACK 79 AUDIO
    TITLE "0:"
    INDEX 01 01:26:62
  TRACK 80 AUDIO
    TITLE "2:cjc114_4484"
    INDEX 01 01:27:22
  TRACK 81 AUDIO
    TITLE "0:"
    INDEX 01 01:28:29
  TRACK 82 AUDIO
    TITLE "3:cjc114_4485"
    INDEX 01 01:28:41
  TRACK 83 AUDIO
    TITLE "0:"
    INDEX 01 01:30:32
  TRACK 84 AUDIO
    TITLE "4:cjc114_4486"
    INDEX 01 01:30:46
  TRACK 85 AUDIO
    TITLE "0:"
    INDEX 01 01:33:33
  TRACK 86 AUDIO
    TITLE "2:cjc114_4487"
    INDEX 01 01:33:68
  TRACK 87 AUDIO
    TITLE "0:"
    INDEX 01 01:35:08
  TRACK 88 AUDIO
    TITLE "3:cjc114_4488"
    INDEX 01 01:35:24
  TRACK 89 AUDIO
    TITLE "0:"
    INDEX 01 01:37:15
  TRACK 90 AUDIO
    TITLE "4:cjc114_4489"
    INDEX 01 01:37:26
  TRACK 91 AUDIO
    TITLE "0:"
    INDEX 01 01:41:48
